<svg width="254" height="277" viewBox="0 0 254 277" fill="none" xmlns="http://www.w3.org/2000/svg">
<path d="M193.723 135.653L212.265 240.811C212.265 240.811 48.8722 269.987 48.1711 269.745C47.47 269.502 29.629 164.587 29.629 164.587" stroke="#CCCCCC" stroke-width="11.5611" stroke-linecap="round"/>
<circle cx="195.345" cy="207.271" r="46.2444" transform="rotate(-10 195.345 207.271)" fill="white" stroke="#CCCCCC" stroke-width="10.116"/>
<path d="M185.758 187.691L180.793 189.498L180.511 189.581C180.054 189.747 179.634 190.003 179.276 190.333C178.919 190.664 178.631 191.062 178.43 191.506C178.047 192.313 177.974 193.233 178.223 194.091L188.728 222.953C188.894 223.409 189.234 223.78 189.673 223.985C190.113 224.19 190.616 224.212 191.071 224.046L217.975 214.254C218.833 213.944 219.545 213.324 219.969 212.516L220.063 212.346C220.467 211.447 220.514 210.429 220.193 209.497L218.317 204.343C217.986 203.431 217.306 202.689 216.427 202.279C215.548 201.87 214.542 201.826 213.631 202.157L197.155 208.154L190.514 189.909C190.171 188.983 189.477 188.229 188.583 187.81C188.144 187.604 187.668 187.487 187.182 187.466C186.697 187.446 186.213 187.522 185.758 187.691Z" fill="#CCCCCC"/>
<path d="M105.419 191.95C106.623 193.079 108.132 193.719 109.683 193.761L126.768 190.748C128.211 190.179 129.41 189.061 130.155 187.589C130.9 186.117 131.145 184.384 130.847 182.692C130.548 181 129.726 179.455 128.522 178.327C127.318 177.199 125.809 176.558 124.258 176.517L107.174 179.529C105.73 180.099 104.531 181.217 103.786 182.689C103.041 184.16 102.796 185.893 103.095 187.585C103.393 189.278 104.216 190.822 105.419 191.95Z" fill="#CCCCCC"/>
<path d="M81.9368 180.311L65.6422 183.184C65.0737 183.284 64.5711 183.622 64.2448 184.122C63.9186 184.623 63.7955 185.246 63.9027 185.853L66.9842 203.329C67.0913 203.937 67.4199 204.48 67.8977 204.839C68.3754 205.198 68.9632 205.343 69.5317 205.243L85.8808 202.36C86.4493 202.26 86.9519 201.922 87.2782 201.421C87.6044 200.921 87.7275 200.298 87.6203 199.691L84.5388 182.215C84.485 181.909 84.3744 181.616 84.2136 181.354C84.0528 181.091 83.845 180.865 83.6025 180.688C83.36 180.51 83.0876 180.385 82.8016 180.321C82.5155 180.256 82.2214 180.253 81.9368 180.311Z" fill="#CCCCCC"/>
<path d="M51.0166 115.912C51.2211 116.35 51.5106 116.744 51.8684 117.07L59.2018 122.442C59.4019 122.587 59.6166 122.711 59.8425 122.811L60.1909 123.103C60.5463 123.434 60.9661 123.69 61.4243 123.852C61.8825 124.015 62.3692 124.082 62.8543 124.049C63.3394 124.015 63.8125 123.883 64.2441 123.659C64.6757 123.435 65.0568 123.125 65.3635 122.747L75.7001 107.67C76.1918 106.78 76.3335 105.739 76.0974 104.75C75.8612 103.761 75.2643 102.897 74.4236 102.325C74.0695 101.991 73.65 101.734 73.1915 101.569C72.733 101.405 72.2455 101.337 71.7596 101.371C71.2737 101.404 70.8 101.538 70.3682 101.763C69.9365 101.989 69.5561 102.301 69.251 102.68L61.5001 113.998L57.0302 110.757C56.1565 110.241 55.1218 110.069 54.1282 110.276C53.1346 110.482 52.2535 111.051 51.6573 111.872C51.3271 112.226 51.0705 112.641 50.9022 113.095C50.734 113.549 50.6574 114.032 50.6771 114.515C50.6967 114.999 50.8121 115.473 51.0166 115.912Z" fill="#CCCCCC"/>
<path d="M90.6744 112.812C91.8974 113.84 93.4754 114.346 95.068 114.22L158.913 102.963C160.453 102.536 161.762 101.521 162.56 100.137C163.358 98.7527 163.58 97.1106 163.178 95.5645C163.027 93.9722 162.257 92.5028 161.034 91.4722C159.81 90.4416 158.232 89.9321 156.637 90.0532L92.7917 101.311C91.2516 101.743 89.9424 102.761 89.1455 104.148C88.3485 105.535 88.1275 107.179 88.53 108.727C88.6811 110.317 89.4513 111.784 90.6744 112.812Z" fill="#CCCCCC"/>
<path d="M59.1491 55.8833L42.9987 58.731C42.4352 58.8304 41.9343 59.1495 41.6061 59.6182C41.278 60.0869 41.1494 60.6668 41.2488 61.2302L44.106 77.4346C44.2054 77.9981 44.5245 78.499 44.9932 78.8272C45.4619 79.1554 46.0418 79.2839 46.6052 79.1845L62.8096 76.3273C63.3731 76.2279 63.874 75.9088 64.2022 75.4401C64.5303 74.9714 64.6589 74.3916 64.5595 73.8281L61.7023 57.6237C61.6524 57.3401 61.5462 57.0694 61.3899 56.8274C61.2337 56.5855 61.0307 56.3773 60.7927 56.2151C60.5547 56.0529 60.2867 55.94 60.0044 55.883C59.7221 55.826 59.4313 55.8261 59.1491 55.8833Z" fill="#CCCCCC"/>
<path d="M82.5191 66.5584C83.7422 67.5861 85.3201 68.0918 86.9127 67.9666L150.758 56.709C152.297 56.282 153.607 55.267 154.405 53.883C155.203 52.4991 155.425 50.8569 155.023 49.3108C154.872 47.7185 154.102 46.2492 152.878 45.2186C151.655 44.188 150.076 43.6785 148.482 43.7995L84.6364 55.0571C83.0963 55.4889 81.7871 56.5076 80.9902 57.8944C80.1933 59.2812 79.9723 60.9253 80.3747 62.4733C80.5259 64.0636 81.296 65.5308 82.5191 66.5584Z" fill="#CCCCCC"/>
<path d="M22.0288 126.995C22.0288 126.995 5.72344 36.603 5.99243 36.0479C6.26141 35.4928 169.393 6.91907 170.086 7.11375C170.779 7.30843 186.122 98.0608 186.122 98.0608" stroke="#CCCCCC" stroke-width="11.5611" stroke-linecap="round"/>
<path d="M29.6394 163.846C29.6394 163.846 32.2927 145.94 38.8737 144.766C45.4547 143.592 56.4696 159.06 56.4696 159.06" stroke="#CCCCCC" stroke-width="11.5611" stroke-linecap="round"/>
<path d="M56.9759 158.97C56.9759 158.97 59.6286 141.064 66.2096 139.89C72.7905 138.716 83.8061 154.183 83.8061 154.183" stroke="#CCCCCC" stroke-width="11.5611" stroke-linecap="round"/>
<path d="M84.3124 154.092C84.3124 154.092 86.965 136.186 93.546 135.012C100.127 133.838 111.142 149.306 111.142 149.306" stroke="#CCCCCC" stroke-width="11.5611" stroke-linecap="round"/>
<path d="M111.648 149.216C111.648 149.216 114.3 131.31 120.881 130.136C127.462 128.962 138.478 144.429 138.478 144.429" stroke="#CCCCCC" stroke-width="11.5611" stroke-linecap="round"/>
<path d="M138.984 144.339C138.984 144.339 141.637 126.433 148.218 125.259C154.799 124.084 165.814 139.552 165.814 139.552" stroke="#CCCCCC" stroke-width="11.5611" stroke-linecap="round"/>
<path d="M166.321 139.462C166.321 139.462 168.973 121.556 175.554 120.382C182.135 119.207 193.151 134.675 193.151 134.675" stroke="#CCCCCC" stroke-width="11.5611" stroke-linecap="round"/>
</svg>
